<svg width="32" height="32" viewBox="0 0 32 32" fill="none" xmlns="http://www.w3.org/2000/svg">
  <rect width="32" height="32" rx="6" fill="#3B82F6"/>
  <path d="M8 10C8 8.89543 8.89543 8 10 8H14C15.1046 8 16 8.89543 16 10V14C16 15.1046 15.1046 16 14 16H10C8.89543 16 8 15.1046 8 14V10Z" fill="white"/>
  <path d="M18 10C18 8.89543 18.8954 8 20 8H22C23.1046 8 24 8.89543 24 10V12C24 13.1046 23.1046 14 22 14H20C18.8954 14 18 13.1046 18 12V10Z" fill="white"/>
  <path d="M8 20C8 18.8954 8.89543 18 10 18H12C13.1046 18 14 18.8954 14 20V22C14 23.1046 13.1046 24 12 24H10C8.89543 24 8 23.1046 8 22V20Z" fill="white"/>
  <path d="M18 18C18 17.4477 18.4477 17 19 17H23C23.5523 17 24 17.4477 24 18C24 18.5523 23.5523 19 23 19H19C18.4477 19 18 18.5523 18 18Z" fill="white"/>
  <path d="M18 21C18 20.4477 18.4477 20 19 20H23C23.5523 20 24 20.4477 24 21C24 21.5523 23.5523 22 23 22H19C18.4477 22 18 21.5523 18 21Z" fill="white"/>
  <path d="M18 24C18 23.4477 18.4477 23 19 23H21C21.5523 23 22 23.4477 22 24C22 24.5523 21.5523 25 21 25H19C18.4477 25 18 24.5523 18 24Z" fill="white"/>
</svg>
